<mxfile host="app.diagrams.net" modified="2022-08-16T03:49:22.246Z" agent="5.0 (Windows NT 10.0; Win64; x64) AppleWebKit/537.36 (KHTML, like Gecko) Chrome/104.0.0.0 Safari/537.36" etag="IhzwIGlgcH7kAOnyIYdI" version="20.2.3" type="github">
  <diagram id="r8lVESYzvB8XMB0mEYaI" name="Trang-1">
    <mxGraphModel dx="862" dy="1619" grid="1" gridSize="10" guides="1" tooltips="1" connect="1" arrows="1" fold="1" page="1" pageScale="1" pageWidth="827" pageHeight="1169" math="0" shadow="0">
      <root>
        <mxCell id="0" />
        <mxCell id="1" parent="0" />
        <mxCell id="iCNTQTzP0FfapyWhs0mV-2" value="Pool" style="swimlane;childLayout=stackLayout;resizeParent=1;resizeParentMax=0;startSize=20;fillColor=#dae8fc;strokeColor=#6c8ebf;" vertex="1" parent="1">
          <mxGeometry x="230" y="-10" width="370" height="480" as="geometry" />
        </mxCell>
        <mxCell id="iCNTQTzP0FfapyWhs0mV-3" value="Người dùng" style="swimlane;startSize=20;fillColor=#dae8fc;strokeColor=#6c8ebf;" vertex="1" parent="iCNTQTzP0FfapyWhs0mV-2">
          <mxGeometry y="20" width="200" height="460" as="geometry" />
        </mxCell>
        <mxCell id="iCNTQTzP0FfapyWhs0mV-7" value="" style="edgeStyle=orthogonalEdgeStyle;rounded=0;orthogonalLoop=1;jettySize=auto;html=1;fillColor=#dae8fc;strokeColor=#6c8ebf;" edge="1" parent="iCNTQTzP0FfapyWhs0mV-3" source="iCNTQTzP0FfapyWhs0mV-1" target="iCNTQTzP0FfapyWhs0mV-6">
          <mxGeometry relative="1" as="geometry" />
        </mxCell>
        <mxCell id="iCNTQTzP0FfapyWhs0mV-1" value="Bắt đầu" style="ellipse;whiteSpace=wrap;html=1;fillColor=#f8cecc;strokeColor=#b85450;" vertex="1" parent="iCNTQTzP0FfapyWhs0mV-3">
          <mxGeometry x="60" y="40" width="80" height="40" as="geometry" />
        </mxCell>
        <mxCell id="iCNTQTzP0FfapyWhs0mV-6" value="Click button &quot;Đơn vị&quot; tại thanh menu trái" style="whiteSpace=wrap;html=1;fillColor=#dae8fc;strokeColor=#6c8ebf;" vertex="1" parent="iCNTQTzP0FfapyWhs0mV-3">
          <mxGeometry x="40" y="120" width="120" height="60" as="geometry" />
        </mxCell>
        <mxCell id="iCNTQTzP0FfapyWhs0mV-4" value="Hệ thống" style="swimlane;startSize=20;fillColor=#dae8fc;strokeColor=#6c8ebf;" vertex="1" parent="iCNTQTzP0FfapyWhs0mV-2">
          <mxGeometry x="200" y="20" width="170" height="460" as="geometry" />
        </mxCell>
        <mxCell id="iCNTQTzP0FfapyWhs0mV-11" value="" style="edgeStyle=orthogonalEdgeStyle;rounded=0;orthogonalLoop=1;jettySize=auto;html=1;fillColor=#dae8fc;strokeColor=#6c8ebf;" edge="1" parent="iCNTQTzP0FfapyWhs0mV-4" source="iCNTQTzP0FfapyWhs0mV-8" target="iCNTQTzP0FfapyWhs0mV-10">
          <mxGeometry relative="1" as="geometry" />
        </mxCell>
        <mxCell id="iCNTQTzP0FfapyWhs0mV-8" value="Gọi API Danh sách đơn vị" style="whiteSpace=wrap;html=1;fillColor=#dae8fc;strokeColor=#6c8ebf;" vertex="1" parent="iCNTQTzP0FfapyWhs0mV-4">
          <mxGeometry x="25" y="120" width="120" height="60" as="geometry" />
        </mxCell>
        <mxCell id="iCNTQTzP0FfapyWhs0mV-13" value="" style="edgeStyle=orthogonalEdgeStyle;rounded=0;orthogonalLoop=1;jettySize=auto;html=1;fillColor=#dae8fc;strokeColor=#6c8ebf;" edge="1" parent="iCNTQTzP0FfapyWhs0mV-4" source="iCNTQTzP0FfapyWhs0mV-10" target="iCNTQTzP0FfapyWhs0mV-12">
          <mxGeometry relative="1" as="geometry" />
        </mxCell>
        <mxCell id="iCNTQTzP0FfapyWhs0mV-10" value="Hiển thị danh sách đơn vị" style="whiteSpace=wrap;html=1;fillColor=#dae8fc;strokeColor=#6c8ebf;" vertex="1" parent="iCNTQTzP0FfapyWhs0mV-4">
          <mxGeometry x="25" y="220" width="120" height="60" as="geometry" />
        </mxCell>
        <mxCell id="iCNTQTzP0FfapyWhs0mV-12" value="Kết thúc" style="ellipse;whiteSpace=wrap;html=1;fillColor=#f8cecc;strokeColor=#b85450;" vertex="1" parent="iCNTQTzP0FfapyWhs0mV-4">
          <mxGeometry x="46.25" y="310" width="77.5" height="40" as="geometry" />
        </mxCell>
        <mxCell id="iCNTQTzP0FfapyWhs0mV-9" value="" style="edgeStyle=orthogonalEdgeStyle;rounded=0;orthogonalLoop=1;jettySize=auto;html=1;fillColor=#dae8fc;strokeColor=#6c8ebf;" edge="1" parent="iCNTQTzP0FfapyWhs0mV-2" source="iCNTQTzP0FfapyWhs0mV-6" target="iCNTQTzP0FfapyWhs0mV-8">
          <mxGeometry relative="1" as="geometry" />
        </mxCell>
      </root>
    </mxGraphModel>
  </diagram>
</mxfile>
